<svg width="12" height="12" viewBox="0 0 12 12" fill="none" xmlns="http://www.w3.org/2000/svg">
<path d="M8.707 11.707C8.51947 11.8945 8.26516 11.9998 8 11.9998C7.73484 11.9998 7.48053 11.8945 7.293 11.707L2.293 6.707C2.10553 6.51947 2.00021 6.26516 2.00021 6C2.00021 5.73484 2.10553 5.48053 2.293 5.293L7.293 0.293C7.4816 0.110842 7.7342 0.0100479 7.9964 0.0123262C8.2586 0.0146046 8.50941 0.119774 8.69482 0.305182C8.88023 0.490589 8.9854 0.741403 8.98767 1.0036C8.98995 1.2658 8.88916 1.5184 8.707 1.707L4.414 6L8.707 10.293C8.89447 10.4805 8.99979 10.7348 8.99979 11C8.99979 11.2652 8.89447 11.5195 8.707 11.707Z" fill="white"/>
</svg>
